<svg width="100" height="100" viewBox="0 0 100 100" fill="none" xmlns="http://www.w3.org/2000/svg">
<rect width="100" height="100" fill="black"/>
<path d="M37.7795 60.6421C38.261 61.1581 37.8951 62 37.1893 62L27.35 61.9996C26.6262 61.9996 25.9364 61.6929 25.4515 61.1557L17.6205 52.4801C16.9175 51.7013 17.4702 50.458 18.5193 50.458H26.8721C27.7671 50.458 28.6219 50.8295 29.2326 51.4838L37.7795 60.6421Z" fill="white"/>
<path d="M25.5974 38.5247C25.9032 38.1904 26.3354 38 26.7885 38H59.3967C59.8395 38 60.2629 38.1819 60.5677 38.5031L69.7349 48.1628C70.223 48.6771 69.8584 49.5256 69.1494 49.5256H18.2825C17.2296 49.5256 16.6784 48.2745 17.3891 47.4976L25.5974 38.5247Z" fill="white"/>
<path d="M39.4203 61.1972C39.8791 61.6987 40.5275 61.9843 41.2071 61.9843H73.1129C73.7771 61.9843 74.4121 61.7115 74.8694 61.2297L83.1512 52.503C83.8833 51.7315 83.3365 50.4587 82.2729 50.4587H31.4293C30.7273 50.4587 30.3599 51.2928 30.8337 51.8107L39.4203 61.1972Z" fill="white"/>
</svg>
